<?xml version="1.0" standalone="no"?>
<!DOCTYPE svg PUBLIC "-//W3C//DTD SVG 20010904//EN" "http://www.w3.org/TR/2001/REC-SVG-20010904/DTD/svg10.dtd">
<svg version="1.0" xmlns="http://www.w3.org/2000/svg" width="48.000000pt" height="48.000000pt" viewBox="0 0 48.000000 48.000000" preserveAspectRatio="xMidYMid meet">

  <g transform="translate(0.000000,48.000000) scale(0.100000,-0.100000)" fill="#000000" stroke="none">
    <path d="M110 380 c0 -5 5 -10 10 -10 6 0 10 5 10 10 0 6 -4 10 -10 10 -5 0
-10 -4 -10 -10z" />
    <path d="M162 350 c-12 -5 -29 -7 -37 -4 -13 5 -15 -9 -15 -91 0 -73 3 -96 13
-93 7 3 13 30 15 74 2 38 7 73 12 78 11 11 81 15 74 5 -5 -9 142 -152 164
-160 27 -10 68 10 81 37 6 14 11 54 11 89 0 51 -3 65 -15 65 -12 0 -15 -14
-15 -67 0 -80 -9 -98 -49 -98 -16 -1 -28 2 -26 5 5 9 -134 145 -162 159 -25
13 -21 13 -51 1z" />
  </g>
</svg>